<?xml version="1.0" encoding="utf-8"?>
<!-- Generator: Adobe Illustrator 27.5.0, SVG Export Plug-In . SVG Version: 6.00 Build 0)  -->
<svg version="1.1" id="Layer_1" xmlns="http://www.w3.org/2000/svg" xmlns:xlink="http://www.w3.org/1999/xlink" x="0px" y="0px"
	 viewBox="1050 1180 1750 1950" xml:space="preserve">
<g>
	<g>
		<g>
			<g>
				<path style="fill:#FFAA00;" d="M2632.068,2974.97c0,0,5.161,88.761-131.998,53.029
					c-137.155-35.695-182.018-73.011-295.943-84.576c-37.937-3.859-43.274-34.044-20.381-58.813c0.105-0.085,0.172-0.167,0.24-0.248
					c2.458-2.64,5.225-5.196,8.339-7.671c0.071-0.044,0.104-0.085,0.104-0.085c22.279-17.753,60.777-30.233,113.567-23.228
					c0,0,50.155-28.814,143.553-38.626c85.238-9.002,196.571,4.989,232.755,54.334c3.454,4.713,6.226,9.754,8.238,15.13
					C2708.044,2931.265,2675.802,2965.756,2632.068,2974.97z"/>
			</g>
			<g>
				<path style="fill:#E06000;" d="M2632.068,2974.97c0,0,5.161,88.761-131.998,53.029
					c-137.155-35.695-182.018-73.011-295.943-84.576c-37.937-3.859-43.274-34.044-20.381-58.813c0.105-0.085,0.172-0.167,0.24-0.248
					c4.774-4.401,7.784-7.168,8.339-7.671c0.071-0.044,0.104-0.085,0.104-0.085s-3.29,42.359,54.29,39.959
					c57.58-2.4,162.926,39.35,246.61,55.28c83.648,15.933,126.144-6.365,116.391-39.893l-0.893-16.201
					c0,0,74.819,10.863,73.477-46.666c3.454,4.713,6.226,9.754,8.238,15.13C2708.044,2931.265,2675.802,2965.756,2632.068,2974.97z"
					/>
			</g>
			<g>
				<path style="fill:#491212;" d="M2367.76,2864.602c94.362-12.195,281.213-20.862,289.105,110.348
					c0.512,13.705-10.181,25.23-23.887,25.743c-14.353,0.601-26.321-11.387-25.742-25.73c2.021-46.669-46.066-65.048-86.32-75.161
					c-48.272-11.079-100.597-13.021-150.191-10.213C2354.61,2890.773,2351.711,2867.285,2367.76,2864.602L2367.76,2864.602z"/>
			</g>
			<g>
				<path style="fill:#491212;" d="M2557.73,3061.257c-18.926,0-40.249-3.076-63.911-9.233
					c-57.329-14.922-98.818-30.112-135.43-43.51c-51.729-18.941-92.588-33.896-156.772-40.4
					c-34.214-3.472-47.344-22.324-52.124-33.257c-8.184-18.711-4.458-40.62,10.21-60.112
					c21.016-27.925,69.038-54.321,141.689-46.875c18.242-8.818,68.018-29.634,145.557-37.813
					c78.228-8.237,234.702-0.996,266.865,85.528c9.727,26.157,8.403,51.699-3.813,73.872
					c-11.089,20.117-30.688,35.869-55.146,44.756c-3.003,13.614-10.288,31.382-27.666,45.64
					C2609.81,3054.114,2586.563,3061.257,2557.73,3061.257z M2277.227,2876.242c-39.609,0-65.601,13.506-76.733,26.909
					c-5.146,6.191-5.85,10.845-5.522,11.841c0.352,0.532,3.447,2.915,11.65,3.745c70.386,7.134,116.006,23.833,168.828,43.169
					c35.557,13.018,75.854,27.769,130.869,42.09c41.88,10.904,73.477,10.127,88.989-2.188c12.217-9.697,11.973-25.132,11.953-25.781
					c-0.718-12.26,7.661-22.822,19.678-25.352c18.218-3.833,33.022-13.247,39.6-25.176c5.107-9.268,5.361-20.244,0.762-32.622
					c-16.299-43.838-124.434-63.023-215.146-53.467c-86.143,9.082-133.418,35.283-133.887,35.547
					c-4.688,2.642-10.21,3.745-15.532,3.032C2293.692,2876.789,2285.181,2876.242,2277.227,2876.242z"/>
			</g>
		</g>
		<g>
			<g>
				<path style="fill:#FFE529;" d="M1337.609,2107.001c0,0,96.27-597.035,640.149-654.285
					c517.975-54.524,684.576,385.705,712.848,551.296c0,0,189.823,210.635,40.388,579.567
					c-140.299,346.376-750.648,529.082-1185.387,284.735c-351.41-197.512-352.423-558.549-339.9-689.696
					c2.955-30.948,25.38-56.579,55.723-63.345C1283.748,2110.296,1311.066,2106.116,1337.609,2107.001z"/>
			</g>
			<g>
				<path style="fill:#F7A521;" d="M2701.021,2531.82c-4.231,12.019-8.874,24.226-13.891,36.619
					c-123.824,305.722-613.841,483.913-1026.051,353.499c-39.502-14.79-78.143-32.65-115.474-53.618
					c-351.403-197.512-352.414-558.537-339.908-689.7c2.958-30.965,25.386-56.576,55.715-63.354
					c4.194-0.936,8.574-1.797,13.068-2.658c12.057,166.06,79.229,404.347,341.405,551.723
					C1981.329,2869.743,2470.784,2773.402,2701.021,2531.82z"/>
			</g>
			<g>
				<path style="fill:#491212;" d="M1992.32,3005.549c-163.054,0.005-322.588-39.004-458.872-115.606
					c-156.931-88.203-263.877-217.3-317.869-383.706c-44.424-136.919-40.73-265.513-34.575-329.976
					c3.999-41.856,34.15-76.094,75.027-85.205c21.646-4.829,42.1-7.729,61.074-8.657c10.049-47.1,40.972-167.466,115.239-293.657
					c124.595-211.709,312.297-336.436,542.817-360.703c228.95-24.102,423.022,45.513,561.221,201.313
					c103.11,116.25,158.955,262.778,177.505,363.828c13.511,16.855,51.855,69.795,76.772,155.322
					c27.358,93.896,43.198,247.212-36.67,444.389c-62.217,153.599-215.313,282.827-420.039,354.546
					C2222.891,2986.345,2106.739,3005.549,1992.32,3005.549z M1330.274,2131.692c-18.909,0-40.21,2.617-63.44,7.802
					c-19.844,4.424-34.478,21.094-36.426,41.485c-13.125,137.461-7.502,477.495,327.356,665.703
					c219.67,123.467,503.691,143.618,759.78,53.921c191.27-67.007,333.584-185.952,390.449-326.343
					c73.965-182.602,60.288-323.32,35.786-409.214c-26.548-93.091-71.206-143.975-71.655-144.478
					c-3.091-3.472-5.195-7.798-5.977-12.383c-16.123-94.434-68.433-234.897-166.89-345.898
					c-128.926-145.361-303.496-207.559-518.901-184.893c-217.302,22.876-387.29,136.094-505.244,336.519
					c-88.657,150.645-112.773,295.591-113.008,297.036c-1.99,12.334-12.847,21.269-25.322,20.85
					C1334.647,2131.726,1332.474,2131.692,1330.274,2131.692z"/>
			</g>
		</g>
		<g>
			<g>
				<path style="fill:#FFE529;" d="M1414.346,2309.95l-218.826,69.783c-22.454,7.161-36.051,29.847-31.906,53.048
					c15.605,87.349,70.594,287.991,250.731,340.975c232.231,68.306,403.88-115.46,369.55-295.186
					c-34.33-179.726-152.969-206.483-251.415-194.367C1532.481,2284.203,1466.589,2293.29,1414.346,2309.95z"/>
			</g>
			<g>
				<path style="fill:#F7A521;" d="M1491.05,2787.631c-24.638-1.61-50.286-6.103-76.721-13.892
					c-180.138-52.982-235.105-253.601-250.718-340.956c-1.423-7.976-0.711-15.838,1.685-23.065
					c33.062,91.249,97.539,198.298,221.775,234.843c172.163,50.623,310.889-37.817,356.457-160.181
					C1767.754,2630.033,1657.821,2776.547,1491.05,2787.631z"/>
			</g>
			<g>
				<path style="fill:#491212;" d="M1417.813,2320.82c-70.67,31.419-143.07,57.426-215.823,82.495
					c-9.756,3.721-15.786,14.742-13.76,24.959c0,0,0.564,2.973,0.564,2.973l2.476,12.302
					c35.117,165.231,130.287,313.648,314.586,316.954c164.617,5.484,293.469-145.081,246.229-306.115
					c-33.534-122.005-100.454-147.24-218.432-159.542c-11.385-1.283-13.074-17.528-2.482-21.305
					c72.565-27.888,159.762-4.271,210.954,53.998c48.565,53.986,74.889,140.737,71.969,211.8
					c-4.763,142.105-126.879,262.68-266.765,274.723c-51.459,5.528-104.38-1.707-153.307-18.121
					c-150.955-50.085-228.838-208.683-254.477-355.652c-8.157-35.961,14.054-74.253,49.736-84.067
					c3.676-0.952,14.88-4.519,18.779-5.576c66.88-19.468,134.162-37.674,202.82-51.567
					C1424.301,2296.532,1430.091,2315.286,1417.813,2320.82L1417.813,2320.82z"/>
			</g>
		</g>
		<g>
			<g>
				
					<ellipse transform="matrix(0.9998 -0.0215 0.0215 0.9998 -41.6823 41.6995)" style="fill:#491212;" cx="1918.032" cy="1958.923" rx="120.475" ry="150.698"/>
			</g>
			<g>
				
					<ellipse transform="matrix(0.9998 -0.0215 0.0215 0.9998 -41.1279 41.1001)" style="fill:#FFFFFF;" cx="1890.62" cy="1933.026" rx="44.075" ry="55.132"/>
			</g>
			<g style="opacity:0.35;">
				
					<ellipse transform="matrix(0.3905 -0.9206 0.9206 0.3905 -655.086 3030.5278)" style="fill:#FFFFFF;" cx="1961.211" cy="2010.006" rx="41.053" ry="32.82"/>
			</g>
			<g>
				
					<ellipse transform="matrix(0.9998 -0.0215 0.0215 0.9998 -40.0412 52.7937)" style="fill:#491212;" cx="2434.847" cy="1888.283" rx="109.379" ry="136.818"/>
			</g>
			<g>
				
					<ellipse transform="matrix(0.9998 -0.0215 0.0215 0.9998 -39.5433 52.2556)" style="fill:#FFFFFF;" cx="2409.959" cy="1864.771" rx="40.016" ry="50.054"/>
			</g>
			<g style="opacity:0.35;">
				
					<ellipse transform="matrix(0.3905 -0.9206 0.9206 0.3905 -273.1719 3456.7039)" style="fill:#FFFFFF;" cx="2474.049" cy="1934.662" rx="37.272" ry="29.797"/>
			</g>
			<g>
				<g>
					<path style="fill:#E06000;" d="M2104.223,2046.419c0,0,86.329,183.26,169.629,177.202
						c83.3-6.058,102.989-177.202,102.989-177.202H2104.223z"/>
				</g>
				<g>
					<path style="fill:#491212;" d="M2269.854,2240.613c-90.132,0-171.709-167.559-180.874-187.012
						c-2.456-5.22-2.075-11.338,1.016-16.206c3.091-4.873,8.457-7.827,14.229-7.827h272.617c4.805,0,9.38,2.051,12.578,5.64
						c3.193,3.584,4.712,8.364,4.16,13.135c-2.178,18.94-24.009,185.21-118.506,192.085
						C2273.336,2240.554,2271.588,2240.613,2269.854,2240.613z M2131.602,2063.269c34.941,65.146,94.727,147.012,141.03,143.545
						c49.99-3.633,75.762-92.368,84.702-143.545H2131.602z"/>
				</g>
			</g>
			<g>
				<g>
					<path style="fill:#8C1B1B;" d="M2191.717,2073.604c0,0,42.906,91.082,84.308,88.071s51.187-88.071,51.187-88.071H2191.717z"/>
				</g>
				<g>
					<path style="fill:#491212;" d="M2198.79,2078.091c1.482-1.771,1.825-5.71,0.654-7.805c0.135,0.25,0.577,0.95,0.73,1.216
						c14.363,23.068,29.835,47.13,49.883,65.352c22.266,20.252,37.69,13.556,50.657-11.783
						c8.125-15.669,13.683-34.365,18.179-52.423l8.318,9.331C2283.902,2082.183,2242.324,2080.181,2198.79,2078.091
						L2198.79,2078.091z M2184.644,2069.118c46.765-2.153,95.523-4.096,142.605-3.889c4.972-0.033,8.911,4.439,8.279,9.365
						c-0.95,21.172-4.819,41.113-13.242,60.796c-17.363,41.64-55.961,52.256-88.897,19.767
						c-21.617-21.035-36.193-47.032-47.808-74.354c-0.215-0.711-1.014-2.408-1.25-3.142
						C2183.007,2075.121,2183.181,2071.196,2184.644,2069.118L2184.644,2069.118z"/>
				</g>
			</g>
			<g>
				<g>
					<path style="fill:#FFAA00;" d="M2100.108,2032.75c20.024-35.678,63.878-108.866,108.431-150.694
						c15.743-14.781,39.264-17.348,57.884-6.411c36.794,21.611,98.796,69.179,137.125,159.174
						c4.282,10.054-1.364,21.591-11.956,24.276c-40.965,10.387-143.997,29.026-279.631-0.223
						C2100.231,2056.344,2094.235,2043.213,2100.108,2032.75z"/>
				</g>
				<g>
					<path style="fill:#491212;" d="M2256.436,2091.345c-42.852,0-92.891-4.111-148.027-16.001
						c-10.903-2.348-19.785-9.526-24.36-19.688c-4.565-10.122-4.063-21.474,1.367-31.152l0,0
						c22.139-39.448,66.074-112.002,111.592-154.731c21.338-20.034,52.661-23.511,77.949-8.652
						c36.318,21.328,103.34,71.406,144.092,167.095c3.979,9.355,3.677,19.936-0.83,29.038c-4.492,9.063-12.686,15.688-22.485,18.174
						C2371.666,2081.531,2322.637,2091.345,2256.436,2091.345z M2241.685,1885.725c-7.832,0-15.552,2.93-21.611,8.618
						c-43.804,41.118-88.213,116.26-105.273,146.655l0,0c-0.083,0.146-0.22,0.396-0.029,0.811c0.215,0.483,0.571,0.557,0.737,0.596
						c133.35,28.75,234.6,9.829,271.943,0.356c0.127-0.029,0.386-0.098,0.571-0.469c0.21-0.425,0.073-0.752,0.02-0.874
						c-36.963-86.792-97.412-132.012-130.156-151.24C2252.803,1887.19,2247.218,1885.725,2241.685,1885.725z M2100.108,2032.751
						h0.049H2100.108z"/>
				</g>
			</g>
			<g>
				<path style="fill:#E06000;" d="M2226.113,1926.249c6.532,2.509,15.997,8.714,15.868,23.591l-39.641-15.985
					c3.526-3.554,7.549-6.422,12.477-8.04C2218.486,1924.609,2222.508,1924.864,2226.113,1926.249z"/>
			</g>
		</g>
		<g>
			<g>
				<path style="fill:#FFAA00;" d="M1937.995,3041.284c0,0-3.22,88.852-136.405,40.364
					c-133.185-48.451-174.335-89.826-286.664-112.067c-37.406-7.414-39.877-37.967-14.752-60.47c0.112-0.075,0.187-0.15,0.262-0.225
					c2.696-2.396,5.691-4.68,9.024-6.852c0.075-0.037,0.112-0.075,0.112-0.075c23.851-15.576,63.354-24.375,115.25-12.431
					c0,0,52.645-23.963,146.552-24.937c85.707-0.936,195.228,23.477,226.605,76.01c2.995,5.017,5.28,10.297,6.777,15.838
					C2017.749,3004.927,1982.402,3036.229,1937.995,3041.284z"/>
			</g>
			<g>
				<path style="fill:#E06000;" d="M1937.995,3041.284c0,0-3.22,88.852-136.405,40.364
					c-133.185-48.451-174.335-89.826-286.664-112.067c-37.406-7.414-39.877-37.967-14.752-60.47c0.112-0.075,0.187-0.15,0.262-0.225
					c5.167-3.932,8.425-6.403,9.024-6.852c0.075-0.037,0.112-0.075,0.112-0.075s-7.264,41.861,50.286,44.894
					c57.55,3.033,158.496,54.517,240.309,78.256c81.776,23.739,126.183,5.542,119.63-28.756l0.637-16.213
					c0,0,73.463,17.86,77.544-39.54c2.995,5.017,5.28,10.297,6.777,15.838C2017.749,3004.927,1982.402,3036.229,1937.995,3041.284z"
					/>
			</g>
			<g>
				<path style="fill:#491212;" d="M1685.252,2906.516c95.093-3.25,281.927,5.71,277.43,137.081
					c-0.782,13.692-12.513,24.159-26.204,23.38c-14.346-0.752-25.131-13.815-23.205-28.04c6.408-46.27-39.736-69.098-78.857-82.954
					c-47.015-15.576-98.927-22.436-148.562-24.309C1669.695,2931.336,1669.024,2907.677,1685.252,2906.516L1685.252,2906.516z"/>
			</g>
			<g>
				<path style="fill:#491212;" d="M1870.702,3120.91c-22.483,0-48.401-5.313-77.598-15.933
					c-55.667-20.259-95.539-39.282-130.723-56.069c-49.717-23.726-88.989-42.466-152.283-54.986
					c-33.733-6.675-45.027-26.68-48.757-38.013c-6.384-19.399-0.615-40.864,15.828-58.887c23.555-25.82,73.84-47.553,145.474-33.33
					c18.989-7.06,70.498-23.096,148.469-23.935c78.555-0.777,233.753,21.113,257.625,110.278
					c7.217,26.953,3.501,52.256-10.752,73.178c-12.935,18.985-33.926,32.823-59.116,39.365
					c-4.273,13.271-13.198,30.274-31.841,42.837C1911.7,3115.744,1892.869,3120.91,1870.702,3120.91z M1578.748,2908.845
					c-31.211,0-52.969,9.663-63.65,20.302c-5.703,5.679-6.841,10.244-6.611,11.265c0.3,0.566,3.157,3.227,11.243,4.829
					c69.409,13.73,113.254,34.653,164.023,58.877c34.17,16.304,72.9,34.785,126.318,54.224
					c40.659,14.795,72.197,16.992,88.799,6.201c13.079-8.506,14.285-23.896,14.329-24.546c0.44-12.275,9.775-21.997,21.978-23.384
					c18.501-2.104,34.126-10.083,41.792-21.338c5.957-8.745,7.246-19.648,3.828-32.402c-11.899-44.438-114.49-73.51-204.685-73.51
					c-1.494,0-2.981,0.005-4.468,0.024c-86.614,0.927-136.143,22.559-136.633,22.778c-4.917,2.193-10.505,2.769-15.754,1.553
					C1604.398,2910.3,1590.858,2908.845,1578.748,2908.845z"/>
			</g>
		</g>
		<g>
			<g>
				<path style="fill:#FFE529;" d="M2226.019,1380.557c-7.751,75.672-66.274,117.496-134.757,107.162l-49.874-10.371
					c0,0,54.03-81.888-42.76-97.314c-96.79-15.464-178.116,48.676-178.116,48.676s-5.242-36.807,6.627-81.589
					c10.896-41.112,36.207-88.927,93.27-121.128c119.181-67.248,266.669-39.69,298.758,81.064
					C2226.356,1334.09,2228.303,1358.728,2226.019,1380.557z"/>
			</g>
			<g>
				<path style="fill:#F7A521;" d="M1995.229,1370.078c0,0,241.518,77.747,217.79-49.475c0,0,19.455,135.985-49.915,157.146
					c-74.026,22.581-101.378,1.535-107.265-38.68C2049.952,1398.854,2018.757,1378.155,1995.229,1370.078z"/>
			</g>
			<g style="opacity:0.7;">
				<path style="fill:#FFFFFF;" d="M2226.019,1380.557c-4.194-30.366-27.558-116.223-157.373-137.715
					c-121.166-20.069-207.547,63.691-241.507,104.279c10.896-41.112,36.207-88.927,93.27-121.128
					c119.181-67.248,266.669-39.69,298.758,81.064C2226.356,1334.09,2228.303,1358.728,2226.019,1380.557z"/>
			</g>
			<g>
				<path style="fill:#491212;" d="M2033.27,1471.992c2.19-12.212,4.802-24.57,4.927-34.709c0.197-8.987-0.942-16.537-6.902-22.583
					c-8.499-8.723-28.347-13.022-42.542-13.716c-36.273-3.276-72.727,5.533-105.893,20.12c-16.298,7.444-32.784,16.38-47.285,26.716
					c-10.261,8.438-25.417,6.958-33.852-3.303c-5.098-5.689-5.663-14.031-6.306-20.774c-0.724-7.568-0.995-15.135-1.009-22.681
					c-0.515-71.149,31.343-143.689,90.528-185.388c116.231-84.614,315.146-76.956,359.58,82.239
					c10.013,40.146,12.822,81.952-1.275,122.074c-20.483,64.64-89.247,104.221-153.387,77.116
					c-8.895-3.691-7.103-17.194,2.179-18.661c17.594-3.018,33.508-7.124,47.26-13.526c62.017-27.669,71.08-93.024,53.356-152.564
					c-34.265-117.261-190.273-111.901-275.247-51.433c-39.114,26.967-63.186,70.586-70.337,117.291
					c-2.477,15.477-3.577,31.418-2.466,47.073l-39.158-15.676c62.321-47.345,160.852-74.173,234.207-38.158
					c44.144,22.622,45.421,80.083,9.84,111.246C2041.754,1489.413,2030.351,1481.58,2033.27,1471.992L2033.27,1471.992z"/>
			</g>
		</g>
	</g>
</g>
</svg>
